<?xml version="1.0" encoding="UTF-8"?>
<svg version="1.1" xmlns="http://www.w3.org/2000/svg" width="500" height="500">
<path d="M0 0 C165 0 330 0 500 0 C500 165 500 330 500 500 C335 500 170 500 0 500 C0 335 0 170 0 0 Z " fill="#FEFEFE" transform="translate(0,0)"/>
<path d="M0 0 C8.78317918 -0.33514763 18.39219228 1.02249151 25.65625 6.38671875 C31.19475859 12.61754092 34.09498149 19.09950849 34.71875 27.38671875 C34.80253906 28.47339844 34.88632812 29.56007812 34.97265625 30.6796875 C35.03324219 31.51113281 35.09382813 32.34257812 35.15625 33.19921875 C35.81625 31.87921875 36.47625 30.55921875 37.15625 29.19921875 C38.98046875 29.22265625 38.98046875 29.22265625 41.15625 30.19921875 C42.3319574 32.79242427 43.18385064 35.11450464 43.96875 37.82421875 C44.31196289 38.87416016 44.31196289 38.87416016 44.66210938 39.9453125 C46.12854955 44.7796321 46.21287041 48.25968038 45.15625 53.19921875 C44.82625 53.19921875 44.49625 53.19921875 44.15625 53.19921875 C44.07375 52.00296875 43.99125 50.80671875 43.90625 49.57421875 C43.3794571 45.15544848 41.85759013 42.68481892 39.15625 39.19921875 C39.81625 38.86921875 40.47625 38.53921875 41.15625 38.19921875 C39.83625 37.53921875 38.51625 36.87921875 37.15625 36.19921875 C37.15625 36.85921875 37.15625 37.51921875 37.15625 38.19921875 C35.83625 38.19921875 34.51625 38.19921875 33.15625 38.19921875 C32.9396875 39.62234375 32.9396875 39.62234375 32.71875 41.07421875 C32.15625 44.19921875 32.15625 44.19921875 31.15625 46.19921875 C34.45625 46.52921875 37.75625 46.85921875 41.15625 47.19921875 C41.15625 52.47921875 41.15625 57.75921875 41.15625 63.19921875 C40.06457538 61.01586951 38.9764678 58.83066524 37.90625 56.63671875 C35.67614192 53.53049678 33.75047846 52.44619597 30.15625 51.19921875 C27.43921405 51.94022855 26.0051356 53.32582811 23.84375 55.13671875 C19.0603149 58.80772708 14.10161909 60.47417374 8.15625 61.19921875 C7.71569473 67.36699252 8.14621817 72.23103772 12.15625 77.19921875 C16.01394909 80.61901687 20.07369198 83.70195439 24.21875 86.76269531 C52.29655372 107.58046208 52.29655372 107.58046208 54.46972656 121.15771484 C55.48331053 131.86656051 53.66779792 140.10461467 46.84375 148.51171875 C40.0340218 155.7995768 32.18757129 158.15892434 22.39233398 158.53588867 C11.68332463 158.73032772 3.76397464 156.56935402 -4.15234375 149.1328125 C-10.30155946 142.10310863 -11.11882801 134.51026641 -11.078125 125.484375 C-10.77094894 121.17879054 -9.67222092 118.08471944 -7.84375 114.19921875 C-9.82375 114.19921875 -11.80375 114.19921875 -13.84375 114.19921875 C-13.84375 110.89921875 -13.84375 107.59921875 -13.84375 104.19921875 C-11.53375 104.19921875 -9.22375 104.19921875 -6.84375 104.19921875 C-6.84375 104.85921875 -6.84375 105.51921875 -6.84375 106.19921875 C-8.49375 106.19921875 -10.14375 106.19921875 -11.84375 106.19921875 C-11.84375 107.18921875 -11.84375 108.17921875 -11.84375 109.19921875 C-10.19375 109.19921875 -8.54375 109.19921875 -6.84375 109.19921875 C-8.82375 109.69421875 -8.82375 109.69421875 -10.84375 110.19921875 C-10.84375 110.85921875 -10.84375 111.51921875 -10.84375 112.19921875 C-6.01932816 110.92975361 -6.01932816 110.92975361 -2.84375 107.19921875 C-2.18375 107.19921875 -1.52375 107.19921875 -0.84375 107.19921875 C-1.8046568 109.65342667 -2.783204 112.07171861 -3.9140625 114.453125 C-7.30983171 121.88608649 -8.42165715 129.03648107 -5.99609375 136.97265625 C-2.89030555 143.98436791 1.68002533 148.04262706 8.515625 151.3359375 C16.36805526 153.90307816 25.81004752 152.87231999 33.15625 149.19921875 C38.88432143 145.52460689 40.81072996 141.32162746 43.15625 135.19921875 C43.48625 134.53921875 43.81625 133.87921875 44.15625 133.19921875 C44.76485463 124.5266028 43.10260264 118.09146526 37.40625 111.38671875 C31.26709274 104.94711334 24.19191166 99.61052154 17.15625 94.19921875 C0.84287737 81.63235558 0.84287737 81.63235558 -0.84375 73.19921875 C-1.25930469 68.11319073 -1.23570011 63.83362209 1.15625 59.19921875 C0.269375 58.97234375 -0.6175 58.74546875 -1.53125 58.51171875 C-5.4258226 56.96858621 -7.27465159 55.50234527 -9.84375 52.19921875 C-10.65625 48.38671875 -10.65625 48.38671875 -10.84375 45.19921875 C-10.26625 45.96234375 -9.68875 46.72546875 -9.09375 47.51171875 C-6.06365768 51.13099569 -4.07514381 52.77296705 0.40625 54.32421875 C5.35473232 54.15926934 6.70394632 52.26570684 10.1015625 48.89453125 C12.34691524 47.0419018 13.63181507 46.66699517 16.46875 46.26171875 C20.43219458 45.56783394 20.43219458 45.56783394 22.15625 41.94921875 C24.560888 33.30509523 24.31919051 23.51362483 20.5703125 15.328125 C17.74511423 11.07471876 13.6625549 8.4523712 9.15625 6.19921875 C7.71732231 6.10383017 6.2741157 6.06848397 4.83203125 6.06640625 C3.96771484 6.06511719 3.10339844 6.06382812 2.21289062 6.0625 C0.85454102 6.06830078 0.85454102 6.06830078 -0.53125 6.07421875 C-1.41748047 6.07035156 -2.30371094 6.06648437 -3.21679688 6.0625 C-4.08755859 6.06378906 -4.95832031 6.06507813 -5.85546875 6.06640625 C-7.03822388 6.06809814 -7.03822388 6.06809814 -8.24487305 6.06982422 C-11.48212727 6.23100268 -14.63863154 6.72682751 -17.84375 7.19921875 C-17.80570701 18.19569196 -17.74636548 29.19182434 -17.65984726 40.18802929 C-17.62034186 45.29406709 -17.58816838 50.39993164 -17.57275391 55.50610352 C-17.55760754 60.43408569 -17.52319785 65.36159167 -17.47544098 70.28936195 C-17.46060634 72.16917087 -17.45270779 74.04904776 -17.45186615 75.92891502 C-17.44950099 78.56274532 -17.4224586 81.19525475 -17.38964844 83.82885742 C-17.3946788 84.60569382 -17.39970917 85.38253021 -17.40489197 86.1829071 C-17.33447832 89.83738285 -16.96093675 92.01098223 -15.01275635 95.14033508 C-12.4444447 97.57825091 -10.25020104 98.34760599 -6.84375 99.19921875 C-6.84375 99.52921875 -6.84375 99.85921875 -6.84375 100.19921875 C-16.74375 100.19921875 -26.64375 100.19921875 -36.84375 100.19921875 C-33.84375 98.19921875 -33.84375 98.19921875 -31.21875 96.76171875 C-28.55328007 95.35904601 -28.55328007 95.35904601 -27.84375 92.19921875 C-27.69539052 90.427549 -27.59604982 88.65154263 -27.52734375 86.875 C-27.48544922 85.84697266 -27.44355469 84.81894531 -27.40039062 83.75976562 C-27.36107422 82.68791016 -27.32175781 81.61605469 -27.28125 80.51171875 C-27.23806641 79.42826172 -27.19488281 78.34480469 -27.15039062 77.22851562 C-27.04428162 74.55221084 -26.94222639 71.87581349 -26.84375 69.19921875 C-28.266875 69.01359375 -28.266875 69.01359375 -29.71875 68.82421875 C-32.84375 68.19921875 -32.84375 68.19921875 -34.84375 66.19921875 C-32.84420254 66.15667519 -30.84333364 66.15841092 -28.84375 66.19921875 C-28.51375 66.52921875 -28.18375 66.85921875 -27.84375 67.19921875 C-28.44899025 63.22321406 -28.44899025 63.22321406 -29.40625 59.32421875 C-30.10030536 55.95309272 -29.9010204 52.63544305 -29.84375 49.19921875 C-29.18375 49.19921875 -28.52375 49.19921875 -27.84375 49.19921875 C-27.7943979 43.68165399 -27.75805338 38.16421704 -27.73388672 32.64648438 C-27.72381466 30.76853193 -27.71015638 28.89059522 -27.69287109 27.01269531 C-27.66867547 24.31701785 -27.65727917 21.62154729 -27.6484375 18.92578125 C-27.63811493 18.08302643 -27.62779236 17.24027161 -27.61715698 16.37197876 C-27.61675856 14.31300628 -27.72117412 12.2545394 -27.84375 10.19921875 C-30.84992269 7.19304606 -33.66756598 7.60336559 -37.84375 7.19921875 C-37.84375 6.53921875 -37.84375 5.87921875 -37.84375 5.19921875 C-36.79316406 5.07804688 -35.74257812 4.956875 -34.66015625 4.83203125 C-25.75665592 3.83297546 -25.75665592 3.83297546 -16.96875 2.13671875 C-11.34861337 0.787461 -5.75149551 0.4029207 0 0 Z " fill="#D7A758" transform="translate(228.84375,180.80078125)"/>
<path d="M0 0 C2.475 0.99 2.475 0.99 5 2 C4.67 2.66 4.34 3.32 4 4 C5.08812119 7.62707063 7.09204622 8.69156775 10.203125 10.5859375 C14.14729164 13.68982516 16.97947897 18.0420759 20 22 C20 16.06 20 10.12 20 4 C21.32 4.66 22.64 5.32 24 6 C24 6.99 24 7.98 24 9 C23.505 8.505 23.505 8.505 23 8 C22.67415398 12.96333317 22.37303035 17.92689316 22.11132812 22.89404297 C22.02292114 24.56640837 21.92686143 26.2383689 21.828125 27.91015625 C21.53825694 37.05549365 23.47169905 46.02123194 25 55 C25 46.09 25 37.18 25 28 C25.33 28 25.66 28 26 28 C26.83257216 35.36954057 27.27499054 42.71573969 27.5625 50.125 C27.60568359 51.176875 27.64886719 52.22875 27.69335938 53.3125 C27.79818509 55.87490627 27.90035355 58.43738799 28 61 C28.66 58.69 29.32 56.38 30 54 C30.99 54.99 31.98 55.98 33 57 C31.98459798 60.46929024 30.88568413 63.1801341 28.9375 66.25 C26.31925574 70.58129626 26.25379718 75.05296025 26 80 C26.34780518 79.23538452 26.34780518 79.23538452 26.70263672 78.45532227 C27.75356845 76.15466936 28.81413701 73.85858927 29.875 71.5625 C30.23980469 70.76005859 30.60460937 69.95761719 30.98046875 69.13085938 C31.33496094 68.36708984 31.68945312 67.60332031 32.0546875 66.81640625 C32.37937012 66.10943604 32.70405273 65.40246582 33.03857422 64.67407227 C34 63 34 63 36 62 C35.55812019 67.52349758 34.08471913 70.47574527 31 75 C31.33 75.99 31.66 76.98 32 78 C30.453125 78.99 30.453125 78.99 28.875 80 C22.98549494 84.91791665 21.28684939 92.94678685 19 100 C18.01 100 17.02 100 16 100 C16.06960938 98.91203125 16.13921875 97.8240625 16.2109375 96.703125 C16.712987 85.51240332 15.37344149 77.58192632 8.0546875 68.6171875 C1.55967533 61.73870597 -6.28019055 56.20025365 -13.88574219 50.61523438 C-27.82997179 40.3539845 -27.82997179 40.3539845 -30 33 C-30.25669501 30.23815183 -30.19887021 27.78418289 -30 25 C-29.443125 24.82984375 -28.88625 24.6596875 -28.3125 24.484375 C-21.09307381 22.19171938 -14.06074799 19.90420598 -9 14 C-4.00544191 15.27767765 -1.38702189 17.12911784 2 21 C2.495 21.99 2.495 21.99 3 23 C3.33 19.04 3.66 15.08 4 11 C2.906875 11.020625 1.81375 11.04125 0.6875 11.0625 C-3 11 -3 11 -6 10 C-5.34 7.36 -4.68 4.72 -4 2 C-2.68 2 -1.36 2 0 2 C0 1.34 0 0.68 0 0 Z " fill="#FEFDFC" transform="translate(266,217)"/>
<path d="M0 0 C1.32 0.66 2.64 1.32 4 2 C4 2.99 4 3.98 4 5 C3.67 4.67 3.34 4.34 3 4 C2.67415398 8.96333317 2.37303035 13.92689316 2.11132812 18.89404297 C2.02292114 20.56640837 1.92686143 22.2383689 1.828125 23.91015625 C1.53825694 33.05549365 3.47169905 42.02123194 5 51 C5 42.09 5 33.18 5 24 C5.33 24 5.66 24 6 24 C6.83257216 31.36954057 7.27499054 38.71573969 7.5625 46.125 C7.60568359 47.176875 7.64886719 48.22875 7.69335938 49.3125 C7.79818509 51.87490627 7.90035355 54.43738799 8 57 C8.66 54.69 9.32 52.38 10 50 C10.99 50.99 11.98 51.98 13 53 C11.98459798 56.46929024 10.88568413 59.1801341 8.9375 62.25 C6.31925574 66.58129626 6.25379718 71.05296025 6 76 C6.23187012 75.49025635 6.46374023 74.9805127 6.70263672 74.45532227 C7.75356845 72.15466936 8.81413701 69.85858927 9.875 67.5625 C10.23980469 66.76005859 10.60460937 65.95761719 10.98046875 65.13085938 C11.33496094 64.36708984 11.68945312 63.60332031 12.0546875 62.81640625 C12.37937012 62.10943604 12.70405273 61.40246582 13.03857422 60.67407227 C14 59 14 59 16 58 C15.55812019 63.52349758 14.08471913 66.47574527 11 71 C11.33 71.99 11.66 72.98 12 74 C10.453125 74.99 10.453125 74.99 8.875 76 C2.98549494 80.91791665 1.28684939 88.94678685 -1 96 C-1.99 96 -2.98 96 -4 96 C-3.01 95.505 -3.01 95.505 -2 95 C-0.67268712 91.09450346 0.11046015 87.02473176 1 83 C1.28359375 81.71738281 1.5671875 80.43476563 1.859375 79.11328125 C4.73389603 66.42514117 4.73389603 66.42514117 2 54 C0.06489996 51.19538364 -1.97799188 48.48861039 -4.03125 45.76953125 C-11.39454964 35.4112387 -14.34891567 21.24345015 -12.5625 8.6875 C-12.376875 7.800625 -12.19125 6.91375 -12 6 C-6.38741763 8.19952552 -3.56397843 13.36682804 0 18 C0 12.06 0 6.12 0 0 Z " fill="#FCF8F2" transform="translate(286,221)"/>
<path d="M0 0 C0.7734375 0.0309375 1.546875 0.061875 2.34375 0.09375 C3.1171875 0.1040625 3.890625 0.114375 4.6875 0.125 C7.37483619 0.70920352 8.16220031 1.43638394 9.84375 3.59375 C10.20451355 5.85270691 10.20451355 5.85270691 10.18432617 8.52416992 C10.18409958 9.52498093 10.18387299 10.52579193 10.18363953 11.55693054 C10.16815567 12.63513565 10.15267181 13.71334076 10.13671875 14.82421875 C10.13247391 15.92977615 10.12822906 17.03533356 10.12385559 18.1743927 C10.10704437 21.71025812 10.06938685 25.24555645 10.03125 28.78125 C10.01620636 31.17642407 10.0025174 33.57160706 9.99023438 35.96679688 C9.95713285 41.84264185 9.90690893 47.71815542 9.84375 53.59375 C9.51375 53.59375 9.18375 53.59375 8.84375 53.59375 C8.84375 49.96375 8.84375 46.33375 8.84375 42.59375 C8.18375 42.59375 7.52375 42.59375 6.84375 42.59375 C7.17375 45.56375 7.50375 48.53375 7.84375 51.59375 C4.84375 51.59375 4.84375 51.59375 3.23828125 50.28125 C2.71621094 49.724375 2.19414062 49.1675 1.65625 48.59375 C1.12644531 48.036875 0.59664062 47.48 0.05078125 46.90625 C-0.34753906 46.473125 -0.74585938 46.04 -1.15625 45.59375 C-0.82625 44.93375 -0.49625 44.27375 -0.15625 43.59375 C0.83375 43.59375 1.82375 43.59375 2.84375 43.59375 C2.84375 40.6783024 2.43511731 38.25220519 1.84375 35.40625 C1.658125 34.50519531 1.4725 33.60414063 1.28125 32.67578125 C1.0646875 31.64517578 1.0646875 31.64517578 0.84375 30.59375 C-0.51243499 31.71909105 -0.51243499 31.71909105 -0.21875 34.65625 C-0.198125 35.625625 -0.1775 36.595 -0.15625 37.59375 C-0.48625 36.27375 -0.81625 34.95375 -1.15625 33.59375 C-1.81625 33.59375 -2.47625 33.59375 -3.15625 33.59375 C-2.82625 36.23375 -2.49625 38.87375 -2.15625 41.59375 C-7.29069711 36.45930289 -5.31238783 22.64255526 -5.40625 15.59375 C-5.42768066 14.68584717 -5.44911133 13.77794434 -5.47119141 12.8425293 C-5.52807208 1.52222275 -5.52807208 1.52222275 0 0 Z " fill="#F9F1E5" transform="translate(192.15625,187.40625)"/>
<path d="M0 0 C1.8125 0.5 1.8125 0.5 4 2 C7.08085966 8.60405937 8.5438125 15.73855604 10.1875 22.8125 C10.46013672 23.92431641 10.73277344 25.03613281 11.01367188 26.18164062 C12.83051738 33.96356788 14.59255229 42.22234313 12 50 C10.515 50.495 10.515 50.495 9 51 C8.67 50.67 8.34 50.34 8 50 C7.34 52.31 6.68 54.62 6 57 C5.67 57 5.34 57 5 57 C4.67 49.08 4.34 41.16 4 33 C4 39.6 4 46.2 4 53 C3.67 53 3.34 53 3 53 C2.31792189 49.23179053 1.6572646 45.46011 1 41.6875 C0.80921875 40.63498047 0.6184375 39.58246094 0.421875 38.49804688 C-1.33157735 28.32176091 -1.13885068 18.57727651 -0.5 8.3125 C-0.45230469 7.50361328 -0.40460938 6.69472656 -0.35546875 5.86132812 C-0.23985052 3.90738006 -0.12035761 1.95366186 0 0 Z " fill="#FBF8F1" transform="translate(288,224)"/>
<path d="M0 0 C-1.25215811 10.17576591 -5.96711948 21.49118485 -13.75 28.31640625 C-25.3549884 37 -25.3549884 37 -31 37 C-29.94124926 33.59687262 -28.99097846 30.98646769 -27 28 C-26.59904075 26.63234446 -26.22648753 25.25619749 -25.875 23.875 C-22.64114002 13.94817607 -12.7123495 5.77871473 -3.828125 0.77734375 C-2 0 -2 0 0 0 Z " fill="#FAF4EB" transform="translate(327,257)"/>
<path d="M0 0 C10.17033376 0.99887207 21.06953602 6.33028653 28 14 C30.106968 16.59717979 32.09546884 19.25133599 34 22 C30.72406488 23.63796756 27.4530472 22.75784699 24 22 C19.89123946 20.5805011 15.88880998 18.94440499 12 17 C12 16.34 12 15.68 12 15 C11.01 14.67 10.02 14.34 9 14 C7.33803101 12.05098973 5.81553498 10.12647627 4.3125 8.0625 C3.89677734 7.51142578 3.48105469 6.96035156 3.05273438 6.39257812 C0 2.26712592 0 2.26712592 0 0 Z " fill="#FAF4EA" transform="translate(166,225)"/>
<path d="M0 0 C0.66 0.33 1.32 0.66 2 1 C2 17.5 2 34 2 51 C1.67 51 1.34 51 1 51 C1 47.37 1 43.74 1 40 C0.34 40 -0.32 40 -1 40 C-0.67 42.97 -0.34 45.94 0 49 C-3 49 -3 49 -4.60546875 47.6875 C-5.12753906 47.130625 -5.64960938 46.57375 -6.1875 46 C-6.71730469 45.443125 -7.24710938 44.88625 -7.79296875 44.3125 C-8.19128906 43.879375 -8.58960938 43.44625 -9 43 C-8.67 42.34 -8.34 41.68 -8 41 C-7.01 41 -6.02 41 -5 41 C-4.67 41.33 -4.34 41.66 -4 42 C-1.74141413 34.31005287 -2.97427431 25.82115841 -4 18 C-3.67 18 -3.34 18 -3 18 C-3.03480469 17.20335937 -3.06960937 16.40671875 -3.10546875 15.5859375 C-3.37434095 5.06151142 -3.37434095 5.06151142 0 0 Z " fill="#F3E5CD" transform="translate(200,190)"/>
<path d="M0 0 C0.33 0 0.66 0 1 0 C1.83257216 7.36954057 2.27499054 14.71573969 2.5625 22.125 C2.60568359 23.176875 2.64886719 24.22875 2.69335938 25.3125 C2.79818509 27.87490627 2.90035355 30.43738799 3 33 C3.99 29.535 3.99 29.535 5 26 C5.99 26.99 6.98 27.98 8 29 C6.98459798 32.46929024 5.88568413 35.1801341 3.9375 38.25 C1.31925574 42.58129626 1.25379718 47.05296025 1 52 C1.23187012 51.49025635 1.46374023 50.9805127 1.70263672 50.45532227 C2.75356845 48.15466936 3.81413701 45.85858927 4.875 43.5625 C5.23980469 42.76005859 5.60460937 41.95761719 5.98046875 41.13085938 C6.51220703 39.98520508 6.51220703 39.98520508 7.0546875 38.81640625 C7.37937012 38.10943604 7.70405273 37.40246582 8.03857422 36.67407227 C9 35 9 35 11 34 C10.55812019 39.52349758 9.08471913 42.47574527 6 47 C6.33 47.99 6.66 48.98 7 50 C5.96875 50.66 4.9375 51.32 3.875 52 C-2.01450506 56.91791665 -3.71315061 64.94678685 -6 72 C-6.99 72 -7.98 72 -9 72 C-8.01 71.505 -8.01 71.505 -7 71 C-5.67268712 67.09450346 -4.88953985 63.02473176 -4 59 C-3.71640625 57.71738281 -3.4328125 56.43476563 -3.140625 55.11328125 C-1.29741036 46.43592795 0.37564325 38.51249168 -3 30 C-5.17473616 26.86094664 -7.53086992 23.91146087 -10 21 C-9.67 20.34 -9.34 19.68 -9 19 C-5.26360784 20.24546405 -4.81243487 21.63404953 -3 25 C-2.34 24.34 -1.68 23.68 -1 23 C-0.67 24.32 -0.34 25.64 0 27 C0 18.09 0 9.18 0 0 Z " fill="#DFBA7C" transform="translate(291,245)"/>
<path d="M0 0 C2.475 0.99 2.475 0.99 5 2 C4.67 2.66 4.34 3.32 4 4 C4.86649466 5.98330173 4.86649466 5.98330173 6 8 C6.33 8.99 6.66 9.98 7 11 C6.34 11 5.68 11 5 11 C5 16.61 5 22.22 5 28 C4.34 27.67 3.68 27.34 3 27 C3.33 21.72 3.66 16.44 4 11 C1.69 11 -0.62 11 -3 11 C-3.99 10.67 -4.98 10.34 -6 10 C-5.34 7.36 -4.68 4.72 -4 2 C-2.68 2 -1.36 2 0 2 C0 1.34 0 0.68 0 0 Z " fill="#F7EFE1" transform="translate(266,217)"/>
<path d="M0 0 C0.66 0 1.32 0 2 0 C2.04978833 4.0018325 2.08590164 8.00354265 2.10986328 12.00561523 C2.11986243 13.36437118 2.13346624 14.72310594 2.15087891 16.08178711 C2.17539594 18.04531296 2.18546962 20.00900201 2.1953125 21.97265625 C2.20578613 23.15093994 2.21625977 24.32922363 2.22705078 25.54321289 C1.97692853 29.35125693 1.16789726 32.38113496 0 36 C-0.33 36 -0.66 36 -1 36 C-1.02480062 31.67668037 -1.04290758 27.35339894 -1.05493164 23.0300293 C-1.05994669 21.56062091 -1.06676033 20.09121748 -1.07543945 18.62182617 C-1.08762928 16.50438205 -1.09325669 14.38700417 -1.09765625 12.26953125 C-1.10289307 10.99698486 -1.10812988 9.72443848 -1.11352539 8.41333008 C-1.01539606 5.4629081 -0.69063835 2.86053325 0 0 Z " fill="#FEFEFD" transform="translate(200,193)"/>
<path d="M0 0 C2.64 0 5.28 0 8 0 C9.37095624 3.69037278 8.60010967 5.70883835 7.0625 9.25 C6.68222656 10.14203125 6.30195313 11.0340625 5.91015625 11.953125 C5.45962891 12.96632812 5.45962891 12.96632812 5 14 C4.34 14 3.68 14 3 14 C2.49307308 12.4188708 1.99473557 10.83498617 1.5 9.25 C1.2215625 8.36828125 0.943125 7.4865625 0.65625 6.578125 C0 4 0 4 0 0 Z " fill="#FEFDFC" transform="translate(191,188)"/>
<path d="M0 0 C1.32 0.66 2.64 1.32 4 2 C4 2.99 4 3.98 4 5 C3.67 4.67 3.34 4.34 3 4 C2.0708653 18.15271255 1.84194571 31.83451455 3 46 C-0.76532315 39.007257 -1.1498464 33.27062252 -0.875 25.4375 C-1.00316628 21.91292737 -1.724049 19.26962443 -3 16 C-1.515 16.99 -1.515 16.99 0 18 C0 12.06 0 6.12 0 0 Z " fill="#E3C28C" transform="translate(286,221)"/>
<path d="M0 0 C6.75 0.75 6.75 0.75 9 3 C8.43181818 8.56818182 8.43181818 8.56818182 7 10 C4.66702567 10.04092937 2.33294775 10.04241723 0 10 C0 6.7 0 3.4 0 0 Z " fill="#E1BE83" transform="translate(128,285)"/>
<path d="M0 0 C0.33 0 0.66 0 1 0 C1.83257216 7.36954057 2.27499054 14.71573969 2.5625 22.125 C2.60568359 23.176875 2.64886719 24.22875 2.69335938 25.3125 C2.79818509 27.87490627 2.90035355 30.43738799 3 33 C3.99 29.535 3.99 29.535 5 26 C5.99 26.99 6.98 27.98 8 29 C6.74194623 33.50802601 5.09592835 36.4912812 2 40 C-0.56063934 36.15461081 -0.25509461 32.17528152 -0.1953125 27.734375 C-0.1924826 26.94097717 -0.18965271 26.14757935 -0.18673706 25.33013916 C-0.17556779 22.80327083 -0.15046944 20.27676068 -0.125 17.75 C-0.11496598 16.0338593 -0.10584087 14.31771302 -0.09765625 12.6015625 C-0.07563914 8.40090426 -0.04113187 4.2005128 0 0 Z " fill="#EDD8B4" transform="translate(291,245)"/>
<path d="M0 0 C1.82421875 0.0234375 1.82421875 0.0234375 4 1 C5.1757074 3.59320552 6.02760064 5.91528589 6.8125 8.625 C7.04130859 9.32496094 7.27011719 10.02492187 7.50585938 10.74609375 C8.97229955 15.58041335 9.05662041 19.06046163 8 24 C7.67 24 7.34 24 7 24 C6.9175 22.80375 6.835 21.6075 6.75 20.375 C6.2232071 15.95622973 4.70134013 13.48560017 2 10 C2.66 9.67 3.32 9.34 4 9 C2.68 8.34 1.36 7.68 0 7 C-0.33 7.66 -0.66 8.32 -1 9 C-1.80967438 6.08517222 -2.21845993 4.53886783 -1.0625 1.6875 C-0.711875 1.130625 -0.36125 0.57375 0 0 Z " fill="#DDB571" transform="translate(266,210)"/>
<path d="M0 0 C2.31 0 4.62 0 7 0 C7 0.66 7 1.32 7 2 C5.35 2 3.7 2 2 2 C2 2.99 2 3.98 2 5 C3.65 5 5.3 5 7 5 C5.68 5.33 4.36 5.66 3 6 C3 6.66 3 7.32 3 8 C7.82442184 6.73053486 7.82442184 6.73053486 11 3 C11.66 3 12.32 3 13 3 C11.7508258 6.45925163 10.32472205 9.14693203 8 12 C7.67 11.67 7.34 11.34 7 11 C4.67182036 10.63239269 2.3381615 10.29758419 0 10 C0 6.7 0 3.4 0 0 Z " fill="#DDB572" transform="translate(215,285)"/>
<path d="M0 0 C0.66 0.33 1.32 0.66 2 1 C2 1.66 2 2.32 2 3 C1.34 3 0.68 3 0 3 C-0.33 14.88 -0.66 26.76 -1 39 C-1.33 39 -1.66 39 -2 39 C-2.33719047 36.43795456 -2.66987153 33.87545682 -3 31.3125 C-3.09539062 30.59126953 -3.19078125 29.87003906 -3.2890625 29.12695312 C-3.76683735 25.39007129 -4.11919794 21.77708469 -4 18 C-3.67 18 -3.34 18 -3 18 C-3.05220703 16.80503906 -3.05220703 16.80503906 -3.10546875 15.5859375 C-3.37434095 5.06151142 -3.37434095 5.06151142 0 0 Z " fill="#E9D0A6" transform="translate(200,190)"/>
<path d="M0 0 C0.99 0 1.98 0 3 0 C3 1.32 3 2.64 3 4 C3.99 4 4.98 4 6 4 C6.33 2.68 6.66 1.36 7 0 C7.66 0 8.32 0 9 0 C9 3.3 9 6.6 9 10 C8.34 10 7.68 10 7 10 C7 8.68 7 7.36 7 6 C5.35 6 3.7 6 2 6 C2 7.32 2 8.64 2 10 C1.34 10 0.68 10 0 10 C0 6.7 0 3.4 0 0 Z " fill="#DFB97A" transform="translate(350,209)"/>
<path d="M0 0 C2.31 0 4.62 0 7 0 C7 1.32 7 2.64 7 4 C7.30404678 5.67225729 7.63128912 7.34080104 8 9 C7.01 9 6.02 9 5 9 C4.67 8.01 4.34 7.02 4 6 C3.34 5.67 2.68 5.34 2 5 C2 6.32 2 7.64 2 9 C1.34 9 0.68 9 0 9 C0 6.03 0 3.06 0 0 Z " fill="#E3C38D" transform="translate(282,210)"/>
<path d="M0 0 C0.66 0 1.32 0 2 0 C2 3.3 2 6.6 2 10 C1.01 10 0.02 10 -1 10 C-1.66 8.68 -2.32 7.36 -3 6 C-3.33 7.32 -3.66 8.64 -4 10 C-4.66 10 -5.32 10 -6 10 C-6 7.03 -6 4.06 -6 1 C-4.68 1.33 -3.36 1.66 -2 2 C-1.67 2.66 -1.34 3.32 -1 4 C-0.67 2.68 -0.34 1.36 0 0 Z " fill="#DCB36E" transform="translate(202,285)"/>
<path d="M0 0 C2.31 0 4.62 0 7 0 C7 2.97 7 5.94 7 9 C6.34 9 5.68 9 5 9 C4.67 8.01 4.34 7.02 4 6 C3.34 5.67 2.68 5.34 2 5 C2 6.32 2 7.64 2 9 C1.34 9 0.68 9 0 9 C0 6.03 0 3.06 0 0 Z " fill="#DEB877" transform="translate(233,286)"/>
<path d="M0 0 C-0.37125 0.9075 -0.7425 1.815 -1.125 2.75 C-2.30359299 5.88097015 -2.30359299 5.88097015 -1.125 8.375 C-0.75375 8.91125 -0.3825 9.4475 0 10 C-1.32 9.67 -2.64 9.34 -4 9 C-4 8.34 -4 7.68 -4 7 C-4.66 7 -5.32 7 -6 7 C-6 7.99 -6 8.98 -6 10 C-6.66 10 -7.32 10 -8 10 C-8 7.03 -8 4.06 -8 1 C-7.34 1 -6.68 1 -6 1 C-5.67 1.66 -5.34 2.32 -5 3 C-4.54625 2.505 -4.0925 2.01 -3.625 1.5 C-2 0 -2 0 0 0 Z " fill="#DAAE65" transform="translate(322,209)"/>
<path d="M0 0 C2 0.3125 2 0.3125 4 1 C4.33 1.66 4.66 2.32 5 3 C3.35 2.67 1.7 2.34 0 2 C0 2.66 0 3.32 0 4 C2.475 4.99 2.475 4.99 5 6 C4.67 7.32 4.34 8.64 4 10 C2.35 10 0.7 10 -1 10 C-1.33 9.01 -1.66 8.02 -2 7 C-0.68 7 0.64 7 2 7 C0.68 6.34 -0.64 5.68 -2 5 C-1.125 1.125 -1.125 1.125 0 0 Z " fill="#DDB470" transform="translate(167,285)"/>
<path d="M0 0 C1.65 0.33 3.3 0.66 5 1 C5 1.66 5 2.32 5 3 C3.68 2.67 2.36 2.34 1 2 C1.33 2.66 1.66 3.32 2 4 C2.99 4.33 3.98 4.66 5 5 C4.67 6.65 4.34 8.3 4 10 C2.35 10 0.7 10 -1 10 C-1.33 9.01 -1.66 8.02 -2 7 C0.475 7.495 0.475 7.495 3 8 C3 7.34 3 6.68 3 6 C1.68 5.67 0.36 5.34 -1 5 C-0.67 3.35 -0.34 1.7 0 0 Z " fill="#DBB16B" transform="translate(334,209)"/>
<path d="M0 0 C2.97 0 5.94 0 9 0 C9 0.66 9 1.32 9 2 C8.01 2 7.02 2 6 2 C6 4.64 6 7.28 6 10 C5.01 10 4.02 10 3 10 C3 7.36 3 4.72 3 2 C2.01 2 1.02 2 0 2 C0 1.34 0 0.68 0 0 Z " fill="#E1BE83" transform="translate(382,209)"/>
<path d="M0 0 C1.98 0 3.96 0 6 0 C4.68 0.33 3.36 0.66 2 1 C2 1.66 2 2.32 2 3 C3.32 3 4.64 3 6 3 C6 3.66 6 4.32 6 5 C4.68 5 3.36 5 2 5 C2 5.66 2 6.32 2 7 C3.65 7 5.3 7 7 7 C7 7.66 7 8.32 7 9 C4.69 9 2.38 9 0 9 C0 6.03 0 3.06 0 0 Z " fill="#DDB470" transform="translate(148,286)"/>
<path d="M0 0 C1.32 0.66 2.64 1.32 4 2 C4 2.99 4 3.98 4 5 C3.67 4.67 3.34 4.34 3 4 C2.67 9.61 2.34 15.22 2 21 C0.68 20.67 -0.64 20.34 -2 20 C-2.33 18.68 -2.66 17.36 -3 16 C-1.515 16.99 -1.515 16.99 0 18 C0 12.06 0 6.12 0 0 Z " fill="#ECD7B2" transform="translate(286,221)"/>
<path d="M0 0 C0 0.99 0 1.98 0 3 C-1.66666667 4.66666667 -3.33333333 6.33333333 -5 8 C-5 8.99 -5 9.98 -5 11 C-9.75 13 -9.75 13 -12 13 C-12 12.34 -12 11.68 -12 11 C-10.390625 9.4140625 -10.390625 9.4140625 -8.25 7.625 C-5.3756268 5.18382134 -2.61456008 2.72350008 0 0 Z " fill="#EFDCBD" transform="translate(308,281)"/>
<path d="M0 0 C3.88698768 4.2403502 4.89129015 9.39096352 5.125 15 C5.08375 15.66 5.0425 16.32 5 17 C2.78600697 13.20458337 1.99019802 9.24370579 1 5 C0.67 6.98 0.34 8.96 0 11 C-0.33 11 -0.66 11 -1 11 C-1.33 7.7 -1.66 4.4 -2 1 C-1.34 0.67 -0.68 0.34 0 0 Z " fill="#EFDBBB" transform="translate(291,226)"/>
<path d="M0 0 C1.8125 0.1875 1.8125 0.1875 4 1 C5.75 3.5625 5.75 3.5625 7 6 C7.66 5.34 8.32 4.68 9 4 C9.33 6.64 9.66 9.28 10 12 C9.67 11.01 9.34 10.02 9 9 C8.01 9.33 7.02 9.66 6 10 C4.99421411 8.71283353 3.99553202 7.42011342 3 6.125 C2.443125 5.40570313 1.88625 4.68640625 1.3125 3.9453125 C0 2 0 2 0 0 Z " fill="#EBD3AC" transform="translate(281,264)"/>
<path d="M0 0 C0.66 0 1.32 0 2 0 C2 3.3 2 6.6 2 10 C1.01 10 0.02 10 -1 10 C-1.66 7.03 -2.32 4.06 -3 1 C-2.67 1.66 -2.34 2.32 -2 3 C-1.34 3 -0.68 3 0 3 C0 2.01 0 1.02 0 0 Z " fill="#F3E5CE" transform="translate(196,199)"/>
<path d="M0 0 C1.98 1.65 3.96 3.3 6 5 C5.34 5.66 4.68 6.32 4 7 C1.27130593 6.96712417 -1.2966618 6.43602229 -4 6 C-3.67 5.34 -3.34 4.68 -3 4 C-3.99 3.01 -4.98 2.02 -6 1 C-4.02 1.66 -2.04 2.32 0 3 C0 2.67 0 2.34 0 2 C0 1.34 0 0.68 0 0 Z " fill="#EEDBBB" transform="translate(194,241)"/>
<path d="M0 0 C4.55737263 0.43820891 7.57653445 0.85041169 11 4 C9.68 4 8.36 4 7 4 C7.99 5.485 7.99 5.485 9 7 C5.88626628 5.50079488 2.87771795 3.91847864 0 2 C0 1.34 0 0.68 0 0 Z " fill="#F5E9D6" transform="translate(166,225)"/>
<path d="M0 0 C1.65 0 3.3 0 5 0 C5.33 0.66 5.66 1.32 6 2 C4.68 2 3.36 2 2 2 C2 4.31 2 6.62 2 9 C2.99 9.33 3.98 9.66 5 10 C3.35 10 1.7 10 0 10 C0 6.7 0 3.4 0 0 Z " fill="#DFB97A" transform="translate(128,285)"/>
<path d="M0 0 C6.57142857 5 6.57142857 5 8 10 C7.67 10.33 7.34 10.66 7 11 C6.63837971 12.32594105 6.30271961 13.65938457 6 15 C5.18618205 13.06305322 4.37399084 11.12542289 3.5625 9.1875 C3.11003906 8.10855469 2.65757812 7.02960938 2.19140625 5.91796875 C1.39624987 3.9704874 0.66520352 1.99561057 0 0 Z " fill="#ECD5B0" transform="translate(275,227)"/>
<path d="M0 0 C0.99 0 1.98 0 3 0 C3 3.3 3 6.6 3 10 C2.01 10 1.02 10 0 10 C0 6.7 0 3.4 0 0 Z " fill="#E2C086" transform="translate(300,209)"/>
<path d="M0 0 C3.21428123 5.96937942 4.35218093 10.23909536 3 17 C2.67 17 2.34 17 2 17 C1.87625 15.205625 1.87625 15.205625 1.75 13.375 C1.2232071 8.95622973 -0.29865987 6.48560017 -3 3 C-2.34 3 -1.68 3 -1 3 C-0.67 2.01 -0.34 1.02 0 0 Z " fill="#E1BF85" transform="translate(271,217)"/>
<path d="M0 0 C2.31 0 4.62 0 7 0 C6.34 0.66 5.68 1.32 5 2 C4.01 1.67 3.02 1.34 2 1 C2 1.99 2 2.98 2 4 C2.99 4.33 3.98 4.66 5 5 C4.01 5 3.02 5 2 5 C2 6.32 2 7.64 2 9 C1.34 9 0.68 9 0 9 C0 6.03 0 3.06 0 0 Z " fill="#D8A95C" transform="translate(282,210)"/>
<path d="M0 0 C1.32 0.33 2.64 0.66 4 1 C4.33 1.99 4.66 2.98 5 4 C4.01 4.495 4.01 4.495 3 5 C2.34786708 7.02463255 2.34786708 7.02463255 2 9 C1.34 9 0.68 9 0 9 C0 6.03 0 3.06 0 0 Z " fill="#D9AC61" transform="translate(196,286)"/>
<path d="M0 0 C0.99 0.99 1.98 1.98 3 3 C1.125 8.75 1.125 8.75 0 11 C-0.66 11 -1.32 11 -2 11 C-1.125 3.375 -1.125 3.375 0 0 Z " fill="#F0DFC2" transform="translate(296,271)"/>
<path d="M0 0 C-0.33 1.98 -0.66 3.96 -1 6 C-1.5775 5.62875 -2.155 5.2575 -2.75 4.875 C-5 3.70833333 -5 3.70833333 -7.25 4.875 C-8.11625 5.431875 -8.11625 5.431875 -9 6 C-4.53846154 0 -4.53846154 0 0 0 Z " fill="#F0DEC1" transform="translate(327,257)"/>
<path d="M0 0 C0.66 0 1.32 0 2 0 C0.92598892 2.91517292 0.22189824 4.77810176 -2 7 C-5.625 6.625 -5.625 6.625 -9 6 C-8.67 5.01 -8.34 4.02 -8 3 C-8 3.66 -8 4.32 -8 5 C-3.17557816 3.73053486 -3.17557816 3.73053486 0 0 Z " fill="#E1BD80" transform="translate(226,288)"/>
<path d="M0 0 C0.66 0 1.32 0 2 0 C4 2 4 2 4.1953125 3.9453125 C4.13020833 5.96354167 4.06510417 7.98177083 4 10 C3.34 10 2.68 10 2 10 C1.34 6.7 0.68 3.4 0 0 Z " fill="#F0DFC2" transform="translate(282,243)"/>
<path d="M0 0 C0.99 0.33 1.98 0.66 3 1 C2.1875 2.9375 2.1875 2.9375 1 5 C-2 6 -2 6 -4 6 C-3.6875 4.125 -3.6875 4.125 -3 2 C-2.01 1.34 -1.02 0.68 0 0 Z " fill="#EDD7B3" transform="translate(206,179)"/>
<path d="M0 0 C0.66 0 1.32 0 2 0 C2.33 2.31 2.66 4.62 3 7 C2.01 7.33 1.02 7.66 0 8 C-0.38063221 5.6739143 -0.71269945 3.33944736 -1 1 C-0.67 0.67 -0.34 0.34 0 0 Z " fill="#F4E7D1" transform="translate(190,193)"/>
<path d="M0 0 C1.98 0.99 1.98 0.99 4 2 C3.67 3.32 3.34 4.64 3 6 C2.01 6 1.02 6 0 6 C0 4.02 0 2.04 0 0 Z " fill="#FCF9F3" transform="translate(131,287)"/>
<path d="M0 0 C0.66 0.33 1.32 0.66 2 1 C1.67 2.98 1.34 4.96 1 7 C0.01 7.33 -0.98 7.66 -2 8 C-1.125 2.25 -1.125 2.25 0 0 Z " fill="#D9AD63" transform="translate(221,295)"/>
<path d="M0 0 C1 2 1 2 0.25 4.9375 C-0.89726872 7.74830836 -1.69701628 9.1157406 -4 11 C-3.48964169 6.6109185 -2.47785723 3.66291938 0 0 Z " fill="#ECD7B2" transform="translate(301,279)"/>
</svg>
